<?xml version="1.0" encoding="utf-8"?>
<!-- Generator: Adobe Illustrator 16.0.0, SVG Export Plug-In . SVG Version: 6.00 Build 0)  -->
<!DOCTYPE svg PUBLIC "-//W3C//DTD SVG 1.1//EN" "http://www.w3.org/Graphics/SVG/1.1/DTD/svg11.dtd">
<svg version="1.1" id="Layer_1" xmlns="http://www.w3.org/2000/svg" xmlns:xlink="http://www.w3.org/1999/xlink" x="0px" y="0px"
	 width="208.8px" height="39.329px" viewBox="0 0 208.8 39.329" enable-background="new 0 0 208.8 39.329" xml:space="preserve">
<rect fill="#58595B" width="1.439" height="39.329"/>
<polygon fill="#58595B" points="33.958,0 35.544,0 55.313,39.175 53.728,39.175 "/>
<polygon fill="#58595B" points="20.141,0 19.112,1.439 0.479,1.439 0.479,0.007 "/>
<rect x="0.479" y="17.749" fill="#58595B" width="11.509" height="1.438"/>
<rect x="32.615" y="17.749" fill="#58595B" width="11.509" height="1.438"/>
<rect x="15.825" y="17.749" fill="#FF4000" width="13.913" height="1.438"/>
<rect x="22.538" y="11.509" fill="#FF4000" width="1.445" height="13.913"/>
<g>
	<path fill="#58595B" d="M78.645,10.322v-1.34c0-0.197-0.102-0.308-0.307-0.308H66.967c-0.22,0-0.329,0.11-0.329,0.308v21.364
		c0,0.221,0.109,0.308,0.329,0.308h1.589c0.198,0,0.307-0.11,0.307-0.329v-9.958c0-0.073,0.037-0.124,0.125-0.124h6.275
		c0.219,0,0.329-0.088,0.329-0.308v-1.34c0-0.197-0.11-0.308-0.329-0.308h-6.275h-0.125v-7.534c0-0.073,0.037-0.124,0.125-0.124
		h9.35h0.307V10.322z"/>
	<path fill="#58595B" d="M83.572,30.654h1.596c0.198,0,0.308-0.088,0.308-0.307V8.982c0-0.197-0.11-0.309-0.308-0.309h-1.596
		c-0.212,0-0.322,0.111-0.322,0.309v21.365C83.25,30.566,83.36,30.654,83.572,30.654"/>
	<path fill="#58595B" d="M90.704,30.654h11.466c0.197,0,0.307-0.088,0.307-0.307v-1.341c0-0.197-0.11-0.308-0.307-0.308h-9.218
		h-0.059l9.496-17.872c0.051-0.168,0.088-0.308,0.088-0.417V8.982c0-0.197-0.11-0.309-0.307-0.309H90.704
		c-0.212,0-0.322,0.111-0.322,0.309v1.34c0,0.212,0.11,0.308,0.322,0.308h9.211h0.065l-9.488,17.908
		c-0.074,0.147-0.11,0.293-0.11,0.418v1.405C90.382,30.566,90.492,30.654,90.704,30.654"/>
	<path fill="#58595B" d="M108.693,30.654h1.589c0.197,0,0.308-0.088,0.308-0.307V8.982c0-0.197-0.111-0.309-0.308-0.309h-1.589
		c-0.22,0-0.329,0.111-0.329,0.309v21.365C108.364,30.566,108.473,30.654,108.693,30.654"/>
	<path fill="#58595B" d="M122.691,30.654c1.268,0,2.372-0.256,3.347-0.775c0.98-0.527,1.734-1.268,2.276-2.204
		c0.55-0.945,0.82-2.028,0.82-3.259v-9.488c0-1.208-0.271-2.292-0.82-3.251c-0.542-0.944-1.296-1.685-2.276-2.203
		c-0.975-0.528-2.079-0.799-3.347-0.799c-1.28,0-2.4,0.271-3.36,0.799c-0.981,0.519-1.72,1.259-2.24,2.203
		c-0.549,0.959-0.798,2.043-0.798,3.251v9.488c0,1.23,0.249,2.313,0.798,3.259c0.52,0.937,1.259,1.677,2.24,2.204
		C120.291,30.398,121.411,30.654,122.691,30.654 M122.691,28.699c-1.267,0-2.276-0.381-3.037-1.157
		c-0.777-0.754-1.157-1.785-1.157-3.053v-9.599c0-1.267,0.38-2.291,1.157-3.089c0.761-0.776,1.771-1.172,3.037-1.172
		c1.268,0,2.284,0.396,3.062,1.172c0.754,0.798,1.156,1.822,1.156,3.089v9.599c0,1.268-0.402,2.299-1.156,3.053
		C124.976,28.318,123.959,28.699,122.691,28.699"/>
	<path fill="#FF4000" d="M146.392,30.654h1.662c0.198,0,0.309-0.073,0.309-0.256l-0.037-0.088L142.482,8.96
		c-0.029-0.175-0.161-0.286-0.338-0.286h-1.99c-0.198,0-0.308,0.111-0.345,0.286l-5.857,21.351c-0.021,0.109,0,0.197,0.052,0.256
		c0.036,0.065,0.124,0.088,0.234,0.088h1.626c0.183,0,0.292-0.088,0.344-0.307l1.032-4.21c0.021-0.074,0.072-0.11,0.161-0.11h7.468
		h0.146l1.032,4.32C146.085,30.566,146.209,30.654,146.392,30.654 M137.767,24.072l3.288-12.22c0-0.037,0.021-0.052,0.059-0.052
		c0.015,0,0.037,0.015,0.072,0.052l3.311,12.096c0.014,0.036,0.014,0.051-0.022,0.088c-0.037,0.036-0.073,0.036-0.109,0.036h-6.474
		h-0.108H137.767z"/>
	<path fill="#FF4000" d="M153.89,30.654h1.589c0.197,0,0.308-0.088,0.308-0.307v-7.41c0-0.073,0.015-0.132,0.072-0.161l2.424-3.075
		c0.073-0.11,0.124-0.11,0.161,0l5.931,10.734c0.059,0.146,0.184,0.219,0.381,0.219h1.809c0.183,0,0.293-0.051,0.293-0.183
		c0-0.036-0.037-0.11-0.073-0.198l-6.802-12.344c-0.037-0.052-0.037-0.11,0-0.184l6.238-8.69c0.072-0.11,0.087-0.198,0.051-0.271
		c-0.029-0.074-0.124-0.111-0.234-0.111h-1.75c-0.183,0-0.33,0.074-0.403,0.184l-7.937,10.661c-0.036,0.058-0.073,0.072-0.109,0.058
		c-0.036,0-0.051-0.036-0.051-0.095V8.982c0-0.197-0.11-0.309-0.308-0.309h-1.589c-0.22,0-0.329,0.111-0.329,0.309v21.365
		C153.561,30.566,153.67,30.654,153.89,30.654"/>
	<path fill="#FF4000" d="M182.7,8.675h-12.462c-0.212,0-0.308,0.11-0.308,0.308v1.339c0,0.214,0.096,0.309,0.308,0.309h4.906h0.125
		v19.717c0,0.22,0.088,0.308,0.307,0.308h1.611c0.197,0,0.307-0.088,0.307-0.308V10.755c0-0.074,0.037-0.125,0.125-0.125h5.081
		c0.22,0,0.33-0.095,0.33-0.309V8.982V8.675H182.7z"/>
	<path fill="#FF4000" d="M188.265,30.654h1.589c0.197,0,0.307-0.088,0.307-0.307V8.982c0-0.197-0.109-0.309-0.307-0.309h-1.589
		c-0.22,0-0.33,0.111-0.33,0.309v21.365C187.935,30.566,188.045,30.654,188.265,30.654"/>
	<path fill="#FF4000" d="M201.019,30.654h1.735c0.183,0,0.308-0.088,0.344-0.293l5.697-21.342c0.014-0.11,0-0.184-0.052-0.257
		c-0.059-0.052-0.131-0.089-0.241-0.089h-1.604c-0.204,0-0.307,0.111-0.344,0.286l-4.576,17.968
		c-0.021,0.059-0.036,0.073-0.058,0.073c-0.037,0-0.052-0.015-0.074-0.073L197.292,8.96c-0.036-0.175-0.146-0.286-0.344-0.286
		h-1.685c-0.212,0-0.322,0.089-0.322,0.25l0.037,0.096l5.696,21.342C200.712,30.566,200.821,30.654,201.019,30.654"/>
</g>
</svg>
